{
  "accessors": [
    {
      "name": "NormalCar1_Cube.012-Mesh_0_positions",
      "componentType": 5126,
      "count": 2240,
      "min": [
        -0.9036800265312195,
        0.17065900564193726,
        -2.107264995574951
      ],
      "max": [
        0.9036800265312195,
        1.182608962059021,
        2.1134519577026367
      ],
      "type": "VEC3",
      "bufferView": 0,
      "byteOffset": 0
    },
    {
      "name": "NormalCar1_Cube.012-Mesh_0_normals",
      "componentType": 5126,
      "count": 2240,
      "min": [
        -1,
        -1,
        -0.9999409317970276
      ],
      "max": [
        1,
        1,
        0.9998934268951416
      ],
      "type": "VEC3",
      "bufferView": 1,
      "byteOffset": 0
    },
    {
      "name": "NormalCar1_Cube.012-Mesh_0_indices",
      "componentType": 5123,
      "count": 3444,
      "min": [
        0
      ],
      "max": [
        2239
      ],
      "type": "SCALAR",
      "bufferView": 2,
      "byteOffset": 0
    },
    {
      "name": "NormalCar1_Cube.012-Mesh_1_positions",
      "componentType": 5126,
      "count": 130,
      "min": [
        -0.7450379729270935,
        0.770218014717102,
        -1.348006010055542
      ],
      "max": [
        0.7450379729270935,
        1.1362810134887695,
        0.8638790249824524
      ],
      "type": "VEC3",
      "bufferView": 0,
      "byteOffset": 26880
    },
    {
      "name": "NormalCar1_Cube.012-Mesh_1_normals",
      "componentType": 5126,
      "count": 130,
      "min": [
        -0.9246857762336731,
        0.37779417634010315,
        -0.41198086738586426
      ],
      "max": [
        0.9246857762336731,
        0.9212557673454285,
        0.5369812846183777
      ],
      "type": "VEC3",
      "bufferView": 1,
      "byteOffset": 26880
    },
    {
      "name": "NormalCar1_Cube.012-Mesh_1_indices",
      "componentType": 5123,
      "count": 186,
      "min": [
        0
      ],
      "max": [
        129
      ],
      "type": "SCALAR",
      "bufferView": 2,
      "byteOffset": 6888
    },
    {
      "name": "NormalCar1_Cube.012-Mesh_2_positions",
      "componentType": 5126,
      "count": 82,
      "min": [
        -0.7618950009346008,
        0.7663210034370422,
        -1.094396948814392
      ],
      "max": [
        0.7618950009346008,
        0.7959979772567749,
        0.8173369765281677
      ],
      "type": "VEC3",
      "bufferView": 0,
      "byteOffset": 28440
    },
    {
      "name": "NormalCar1_Cube.012-Mesh_2_normals",
      "componentType": 5126,
      "count": 82,
      "min": [
        -0.952703595161438,
        0.30390113592147827,
        -0.09900202602148056
      ],
      "max": [
        0.952703595161438,
        0.8338755965232849,
        0.09460142254829407
      ],
      "type": "VEC3",
      "bufferView": 1,
      "byteOffset": 28440
    },
    {
      "name": "NormalCar1_Cube.012-Mesh_2_indices",
      "componentType": 5123,
      "count": 114,
      "min": [
        0
      ],
      "max": [
        81
      ],
      "type": "SCALAR",
      "bufferView": 2,
      "byteOffset": 7260
    },
    {
      "name": "NormalCar1_Cube.012-Mesh_3_positions",
      "componentType": 5126,
      "count": 16,
      "min": [
        -0.34416401386260986,
        0.25176000595092773,
        -2.040235996246338
      ],
      "max": [
        0.34416401386260986,
        0.5704740285873413,
        2.0940001010894775
      ],
      "type": "VEC3",
      "bufferView": 0,
      "byteOffset": 29424
    },
    {
      "name": "NormalCar1_Cube.012-Mesh_3_normals",
      "componentType": 5126,
      "count": 16,
      "min": [
        -0.06010059639811516,
        0,
        -0.9678095579147339
      ],
      "max": [
        0.06010059639811516,
        0.2444024235010147,
        0.9996487498283386
      ],
      "type": "VEC3",
      "bufferView": 1,
      "byteOffset": 29424
    },
    {
      "name": "NormalCar1_Cube.012-Mesh_3_indices",
      "componentType": 5123,
      "count": 24,
      "min": [
        0
      ],
      "max": [
        15
      ],
      "type": "SCALAR",
      "bufferView": 2,
      "byteOffset": 7488
    },
    {
      "name": "NormalCar1_Cube.012-Mesh_4_positions",
      "componentType": 5126,
      "count": 28,
      "min": [
        -0.7041800022125244,
        0.4171839952468872,
        1.9010779857635498
      ],
      "max": [
        0.7041789889335632,
        0.5318319797515869,
        2.064707040786743
      ],
      "type": "VEC3",
      "bufferView": 0,
      "byteOffset": 29616
    },
    {
      "name": "NormalCar1_Cube.012-Mesh_4_normals",
      "componentType": 5126,
      "count": 28,
      "min": [
        -0.7723575234413147,
        0.08280007541179657,
        0.6247656345367432
      ],
      "max": [
        0.7723575234413147,
        0.2500978708267212,
        0.9385250210762024
      ],
      "type": "VEC3",
      "bufferView": 1,
      "byteOffset": 29616
    },
    {
      "name": "NormalCar1_Cube.012-Mesh_4_indices",
      "componentType": 5123,
      "count": 36,
      "min": [
        0
      ],
      "max": [
        27
      ],
      "type": "SCALAR",
      "bufferView": 2,
      "byteOffset": 7536
    },
    {
      "name": "NormalCar1_Cube.012-Mesh_5_positions",
      "componentType": 5126,
      "count": 14,
      "min": [
        -0.6459069848060608,
        0.6237189769744873,
        -1.9728449583053589
      ],
      "max": [
        0.6459069848060608,
        0.75798100233078,
        -1.8148720264434814
      ],
      "type": "VEC3",
      "bufferView": 0,
      "byteOffset": 29952
    },
    {
      "name": "NormalCar1_Cube.012-Mesh_5_normals",
      "componentType": 5126,
      "count": 14,
      "min": [
        -0.47770828008651733,
        0.24100418388843536,
        -0.8603485226631165
      ],
      "max": [
        0.47770828008651733,
        0.3718777298927307,
        -0.844814658164978
      ],
      "type": "VEC3",
      "bufferView": 1,
      "byteOffset": 29952
    },
    {
      "name": "NormalCar1_Cube.012-Mesh_5_indices",
      "componentType": 5123,
      "count": 18,
      "min": [
        0
      ],
      "max": [
        13
      ],
      "type": "SCALAR",
      "bufferView": 2,
      "byteOffset": 7608
    },
    {
      "name": "NormalCar1_BackWheels_Cube.011-Mesh_0_positions",
      "componentType": 5126,
      "count": 488,
      "min": [
        -0.7825790047645569,
        0.006029999814927578,
        -1.5051480531692505
      ],
      "max": [
        0.7843189835548401,
        0.5298140048980713,
        -0.9813640117645264
      ],
      "type": "VEC3",
      "bufferView": 0,
      "byteOffset": 30120
    },
    {
      "name": "NormalCar1_BackWheels_Cube.011-Mesh_0_normals",
      "componentType": 5126,
      "count": 488,
      "min": [
        -1,
        -0.965928852558136,
        -0.965928852558136
      ],
      "max": [
        1,
        0.965928852558136,
        0.965928852558136
      ],
      "type": "VEC3",
      "bufferView": 1,
      "byteOffset": 30120
    },
    {
      "name": "NormalCar1_BackWheels_Cube.011-Mesh_0_indices",
      "componentType": 5123,
      "count": 828,
      "min": [
        0
      ],
      "max": [
        487
      ],
      "type": "SCALAR",
      "bufferView": 2,
      "byteOffset": 7644
    },
    {
      "name": "NormalCar1_BackWheels_Cube.011-Mesh_1_positions",
      "componentType": 5126,
      "count": 1088,
      "min": [
        -0.7699670195579529,
        0.09480500221252441,
        -1.4163739681243896
      ],
      "max": [
        0.7717069983482361,
        0.44103899598121643,
        -1.0701390504837036
      ],
      "type": "VEC3",
      "bufferView": 0,
      "byteOffset": 35976
    },
    {
      "name": "NormalCar1_BackWheels_Cube.011-Mesh_1_normals",
      "componentType": 5126,
      "count": 1088,
      "min": [
        -1,
        -0.9998078942298889,
        -0.9998078942298889
      ],
      "max": [
        1,
        0.9998078942298889,
        0.9998078942298889
      ],
      "type": "VEC3",
      "bufferView": 1,
      "byteOffset": 35976
    },
    {
      "name": "NormalCar1_BackWheels_Cube.011-Mesh_1_indices",
      "componentType": 5123,
      "count": 1692,
      "min": [
        0
      ],
      "max": [
        1087
      ],
      "type": "SCALAR",
      "bufferView": 2,
      "byteOffset": 9300
    },
    {
      "name": "NormalCar1_FrontLeftWheel_Cube.007-Mesh_0_positions",
      "componentType": 5126,
      "count": 544,
      "min": [
        0.7214120030403137,
        0.09480500221252441,
        1.022752046585083
      ],
      "max": [
        0.7734580039978027,
        0.44103899598121643,
        1.3689860105514526
      ],
      "type": "VEC3",
      "bufferView": 0,
      "byteOffset": 49032
    },
    {
      "name": "NormalCar1_FrontLeftWheel_Cube.007-Mesh_0_normals",
      "componentType": 5126,
      "count": 544,
      "min": [
        0,
        -0.9998078942298889,
        -0.9998078942298889
      ],
      "max": [
        1,
        0.9998078942298889,
        0.9998078942298889
      ],
      "type": "VEC3",
      "bufferView": 1,
      "byteOffset": 49032
    },
    {
      "name": "NormalCar1_FrontLeftWheel_Cube.007-Mesh_0_indices",
      "componentType": 5123,
      "count": 846,
      "min": [
        0
      ],
      "max": [
        543
      ],
      "type": "SCALAR",
      "bufferView": 2,
      "byteOffset": 12684
    },
    {
      "name": "NormalCar1_FrontLeftWheel_Cube.007-Mesh_1_positions",
      "componentType": 5126,
      "count": 244,
      "min": [
        0.5952069759368896,
        0.006029999814927578,
        0.9339770078659058
      ],
      "max": [
        0.7860699892044067,
        0.5298140048980713,
        1.4577610492706299
      ],
      "type": "VEC3",
      "bufferView": 0,
      "byteOffset": 55560
    },
    {
      "name": "NormalCar1_FrontLeftWheel_Cube.007-Mesh_1_normals",
      "componentType": 5126,
      "count": 244,
      "min": [
        -1,
        -0.965928852558136,
        -0.965928852558136
      ],
      "max": [
        1,
        0.965928852558136,
        0.965928852558136
      ],
      "type": "VEC3",
      "bufferView": 1,
      "byteOffset": 55560
    },
    {
      "name": "NormalCar1_FrontLeftWheel_Cube.007-Mesh_1_indices",
      "componentType": 5123,
      "count": 414,
      "min": [
        0
      ],
      "max": [
        243
      ],
      "type": "SCALAR",
      "bufferView": 2,
      "byteOffset": 14376
    },
    {
      "name": "NormalCar1_FrontRightWheel_Cube.008-Mesh_0_positions",
      "componentType": 5126,
      "count": 544,
      "min": [
        -0.7717180252075195,
        0.09480500221252441,
        1.022752046585083
      ],
      "max": [
        -0.7196729779243469,
        0.44103899598121643,
        1.3689860105514526
      ],
      "type": "VEC3",
      "bufferView": 0,
      "byteOffset": 58488
    },
    {
      "name": "NormalCar1_FrontRightWheel_Cube.008-Mesh_0_normals",
      "componentType": 5126,
      "count": 544,
      "min": [
        -1,
        -0.9998078942298889,
        -0.9998078942298889
      ],
      "max": [
        0,
        0.9998078942298889,
        0.9998078942298889
      ],
      "type": "VEC3",
      "bufferView": 1,
      "byteOffset": 58488
    },
    {
      "name": "NormalCar1_FrontRightWheel_Cube.008-Mesh_0_indices",
      "componentType": 5123,
      "count": 846,
      "min": [
        0
      ],
      "max": [
        543
      ],
      "type": "SCALAR",
      "bufferView": 2,
      "byteOffset": 15204
    },
    {
      "name": "NormalCar1_FrontRightWheel_Cube.008-Mesh_1_positions",
      "componentType": 5126,
      "count": 244,
      "min": [
        -0.7843300104141235,
        0.006029999814927578,
        0.9339770078659058
      ],
      "max": [
        -0.5934680104255676,
        0.5298140048980713,
        1.4577610492706299
      ],
      "type": "VEC3",
      "bufferView": 0,
      "byteOffset": 65016
    },
    {
      "name": "NormalCar1_FrontRightWheel_Cube.008-Mesh_1_normals",
      "componentType": 5126,
      "count": 244,
      "min": [
        -1,
        -0.965928852558136,
        -0.965928852558136
      ],
      "max": [
        1,
        0.965928852558136,
        0.965928852558136
      ],
      "type": "VEC3",
      "bufferView": 1,
      "byteOffset": 65016
    },
    {
      "name": "NormalCar1_FrontRightWheel_Cube.008-Mesh_1_indices",
      "componentType": 5123,
      "count": 414,
      "min": [
        0
      ],
      "max": [
        243
      ],
      "type": "SCALAR",
      "bufferView": 2,
      "byteOffset": 16896
    }
  ],
  "asset": {
    "generator": "obj2gltf",
    "version": "2.0"
  },
  "buffers": [
    {
      "name": "normalcar1",
      "byteLength": 153612,
      "uri": "data:application/octet-stream;base64,"
    }
  ],
  "bufferViews": [
    {
      "name": "bufferView_0",
      "buffer": 0,
      "byteLength": 67944,
      "byteOffset": 0,
      "byteStride": 12,
      "target": 34962
    },
    {
      "name": "bufferView_1",
      "buffer": 0,
      "byteLength": 67944,
      "byteOffset": 67944,
      "byteStride": 12,
      "target": 34962
    },
    {
      "name": "bufferView_2",
      "buffer": 0,
      "byteLength": 17724,
      "byteOffset": 135888,
      "target": 34963
    }
  ],
  "materials": [
    {
      "name": "Blue",
      "pbrMetallicRoughness": {
        "baseColorFactor": [
          0.278294,
          0.431701,
          0.64,
          1
        ],
        "metallicFactor": 0,
        "roughnessFactor": 0.903921569
      },
      "emissiveFactor": [
        0,
        0,
        0
      ],
      "alphaMode": "OPAQUE",
      "doubleSided": false
    },
    {
      "name": "Windows",
      "pbrMetallicRoughness": {
        "baseColorFactor": [
          0.028481,
          0.028481,
          0.028481,
          1
        ],
        "metallicFactor": 0,
        "roughnessFactor": 0.903921569
      },
      "emissiveFactor": [
        0,
        0,
        0
      ],
      "alphaMode": "OPAQUE",
      "doubleSided": false
    },
    {
      "name": "Black",
      "pbrMetallicRoughness": {
        "baseColorFactor": [
          0.010962,
          0.010962,
          0.010962,
          1
        ],
        "metallicFactor": 0,
        "roughnessFactor": 0.903921569
      },
      "emissiveFactor": [
        0,
        0,
        0
      ],
      "alphaMode": "OPAQUE",
      "doubleSided": false
    },
    {
      "name": "Grey",
      "pbrMetallicRoughness": {
        "baseColorFactor": [
          0.161245,
          0.161245,
          0.161245,
          1
        ],
        "metallicFactor": 0,
        "roughnessFactor": 0.903921569
      },
      "emissiveFactor": [
        0,
        0,
        0
      ],
      "alphaMode": "OPAQUE",
      "doubleSided": false
    },
    {
      "name": "Headlights",
      "pbrMetallicRoughness": {
        "baseColorFactor": [
          0.639282,
          0.30101,
          0.10195,
          1
        ],
        "metallicFactor": 0,
        "roughnessFactor": 0.903921569
      },
      "emissiveFactor": [
        0,
        0,
        0
      ],
      "alphaMode": "OPAQUE",
      "doubleSided": false
    },
    {
      "name": "TailLights",
      "pbrMetallicRoughness": {
        "baseColorFactor": [
          0.639282,
          0.074447,
          0.059371,
          1
        ],
        "metallicFactor": 0,
        "roughnessFactor": 0.903921569
      },
      "emissiveFactor": [
        0,
        0,
        0
      ],
      "alphaMode": "OPAQUE",
      "doubleSided": false
    }
  ],
  "meshes": [
    {
      "name": "NormalCar1_Cube.012-Mesh",
      "primitives": [
        {
          "attributes": {
            "POSITION": 0,
            "NORMAL": 1
          },
          "indices": 2,
          "material": 0,
          "mode": 4
        },
        {
          "attributes": {
            "POSITION": 3,
            "NORMAL": 4
          },
          "indices": 5,
          "material": 1,
          "mode": 4
        },
        {
          "attributes": {
            "POSITION": 6,
            "NORMAL": 7
          },
          "indices": 8,
          "material": 2,
          "mode": 4
        },
        {
          "attributes": {
            "POSITION": 9,
            "NORMAL": 10
          },
          "indices": 11,
          "material": 3,
          "mode": 4
        },
        {
          "attributes": {
            "POSITION": 12,
            "NORMAL": 13
          },
          "indices": 14,
          "material": 4,
          "mode": 4
        },
        {
          "attributes": {
            "POSITION": 15,
            "NORMAL": 16
          },
          "indices": 17,
          "material": 5,
          "mode": 4
        }
      ]
    },
    {
      "name": "NormalCar1_BackWheels_Cube.011-Mesh",
      "primitives": [
        {
          "attributes": {
            "POSITION": 18,
            "NORMAL": 19
          },
          "indices": 20,
          "material": 2,
          "mode": 4
        },
        {
          "attributes": {
            "POSITION": 21,
            "NORMAL": 22
          },
          "indices": 23,
          "material": 3,
          "mode": 4
        }
      ]
    },
    {
      "name": "NormalCar1_FrontLeftWheel_Cube.007-Mesh",
      "primitives": [
        {
          "attributes": {
            "POSITION": 24,
            "NORMAL": 25
          },
          "indices": 26,
          "material": 3,
          "mode": 4
        },
        {
          "attributes": {
            "POSITION": 27,
            "NORMAL": 28
          },
          "indices": 29,
          "material": 2,
          "mode": 4
        }
      ]
    },
    {
      "name": "NormalCar1_FrontRightWheel_Cube.008-Mesh",
      "primitives": [
        {
          "attributes": {
            "POSITION": 30,
            "NORMAL": 31
          },
          "indices": 32,
          "material": 3,
          "mode": 4
        },
        {
          "attributes": {
            "POSITION": 33,
            "NORMAL": 34
          },
          "indices": 35,
          "material": 2,
          "mode": 4
        }
      ]
    }
  ],
  "nodes": [
    {
      "name": "NormalCar1_Cube.012",
      "mesh": 0
    },
    {
      "name": "NormalCar1_BackWheels_Cube.011",
      "mesh": 1
    },
    {
      "name": "NormalCar1_FrontLeftWheel_Cube.007",
      "mesh": 2
    },
    {
      "name": "NormalCar1_FrontRightWheel_Cube.008",
      "mesh": 3
    }
  ],
  "scene": 0,
  "scenes": [
    {
      "nodes": [
        0,
        1,
        2,
        3
      ]
    }
  ]
}
